<?xml version="1.0" standalone="no"?>
<!DOCTYPE svg PUBLIC "-//W3C//DTD SVG 20010904//EN"
 "http://www.w3.org/TR/2001/REC-SVG-20010904/DTD/svg10.dtd">
<svg version="1.0" xmlns="http://www.w3.org/2000/svg"
 width="454.000000pt" height="592.000000pt" viewBox="0 0 454.000000 592.000000"
 preserveAspectRatio="xMidYMid meet">

<g transform="translate(0.000000,592.000000) scale(0.100000,-0.100000)"
fill="#000000" stroke="none">
<path d="M1718 5865 c-84 -21 -126 -46 -189 -111 -71 -75 -94 -133 -94 -234 1
-79 18 -125 72 -196 l23 -31 -31 -39 c-113 -143 -116 -314 -5 -458 l36 -48 0
-168 c0 -96 -4 -171 -9 -175 -6 -3 -47 -8 -93 -11 -196 -12 -420 -66 -567
-135 -268 -125 -528 -386 -638 -639 -47 -109 -101 -289 -118 -393 -34 -213
-40 -390 -40 -1272 0 -958 6 -1118 50 -1268 51 -177 160 -340 304 -453 129
-101 320 -176 498 -194 76 -8 515 -10 1468 -7 1322 4 1362 5 1430 24 384 109
615 326 700 659 l25 99 0 1150 c0 1105 -1 1154 -20 1260 -54 294 -142 491
-310 690 -87 102 -143 153 -255 231 -211 145 -428 220 -710 244 -71 6 -136 13
-142 15 -10 3 -13 48 -13 176 l0 171 30 35 c41 46 75 116 90 184 11 48 10 64
-5 115 -18 62 -65 153 -90 174 -22 18 -19 32 20 90 19 28 40 70 46 93 44 155
-41 322 -203 398 l-73 34 -565 2 c-460 2 -576 -1 -622 -12z m1147 -235 c27
-13 -30 -15 -505 -25 l-535 -10 -36 -27 c-46 -36 -64 -71 -64 -124 0 -37 -2
-41 -18 -33 -49 27 -65 111 -31 168 10 17 36 40 59 51 39 20 55 20 570 17 433
-2 535 -5 560 -17z m-163 -458 l188 -7 37 -40 c21 -21 29 -32 18 -23 -18 15
-21 15 -35 0 -13 -14 -12 -15 2 -10 14 6 14 2 5 -28 -6 -19 -22 -46 -35 -59
-24 -24 -30 -25 -157 -25 l-133 0 -25 -42 c-28 -48 -73 -94 -131 -132 -21 -14
-33 -26 -25 -26 8 0 68 -5 134 -11 66 -5 139 -10 163 -10 23 -1 40 -5 36 -10
-3 -5 9 -12 25 -15 37 -8 29 -24 -22 -45 -18 -7 -42 -23 -53 -35 -16 -17 -25
-19 -33 -11 -10 10 -16 -1 -12 -25 0 -4 -7 -4 -16 -1 -9 4 -21 -1 -29 -12 -8
-10 -20 -15 -29 -11 -9 3 -18 0 -21 -9 -4 -8 -15 -15 -25 -15 -10 0 -19 -5
-19 -12 0 -28 -15 7 -21 50 -6 45 -12 -268 -9 -543 1 -234 52 -463 148 -675
19 -43 26 -68 19 -75 -5 -6 -43 -9 -83 -7 -60 3 -74 1 -74 -11 0 -11 -8 -14
-26 -12 -20 2 -36 -7 -61 -33 -26 -27 -37 -32 -43 -22 -12 19 -40 4 -40 -20 0
-12 -4 -18 -10 -15 -5 3 -10 1 -10 -5 0 -6 -4 -9 -9 -5 -5 3 -12 1 -16 -5 -3
-5 -24 -10 -46 -10 -21 0 -39 -4 -39 -10 0 -6 -26 -10 -59 -10 -33 0 -62 -4
-65 -9 -3 -5 -72 -12 -153 -16 -82 -3 -156 -9 -166 -11 -10 -4 -20 1 -24 13
-4 10 -13 24 -21 32 -8 8 -11 24 -8 40 l6 26 -14 -25 c-13 -22 -13 -27 0 -41
8 -8 14 -21 14 -28 0 -7 -8 -3 -18 9 -18 22 -18 22 -54 -66 -80 -195 -108
-306 -123 -484 -7 -87 9 -307 30 -398 13 -53 15 -217 15 -998 l0 -935 -87 3
-88 3 -7 899 c-5 654 -11 902 -19 912 -6 8 -24 14 -40 14 -58 0 -56 23 -63
-785 -3 -407 -6 -809 -6 -892 0 -149 -1 -153 -21 -153 l-21 0 5 1143 c5 1148
9 1289 43 1421 35 141 99 273 219 456 154 234 250 477 274 691 6 52 11 261 12
465 l1 371 -45 46 c-86 89 -100 203 -34 276 45 49 56 50 462 50 209 -1 464 -4
567 -7z m145 -444 c-3 -7 -5 -2 -5 12 0 14 2 19 5 13 2 -7 2 -19 0 -25z m0
-130 c-2 -24 -4 -7 -4 37 0 44 2 63 4 43 2 -21 2 -57 0 -80z m-1324 -518 c-3
-103 -24 -202 -70 -334 -46 -132 -64 -166 -183 -347 -183 -278 -251 -460 -279
-744 -6 -55 -14 -275 -18 -490 -4 -214 -10 -376 -14 -360 -4 17 -7 55 -9 85
-1 41 -4 50 -10 35 -5 -11 -9 -33 -10 -50 -2 -27 -4 -25 -17 17 -8 26 -17 47
-21 47 -25 -4 -33 3 -27 22 6 19 4 21 -19 15 -15 -4 -26 -2 -26 4 0 5 -18 10
-40 10 -28 0 -40 -4 -40 -14 0 -18 -29 -29 -45 -16 -14 11 -45 3 -45 -12 0
-15 19 -47 41 -69 29 -29 26 -99 -5 -128 -34 -32 -101 -26 -128 10 -23 31 -28
97 -9 109 8 4 11 13 7 19 -4 6 9 17 31 26 30 13 35 18 23 25 -22 14 -50 12
-50 -4 0 -16 -26 -46 -41 -46 -5 0 -9 7 -9 16 0 14 -8 16 -55 11 -30 -3 -57
-1 -60 4 -4 5 -12 9 -18 9 -7 0 -6 -4 3 -10 8 -5 11 -12 7 -17 -4 -4 -17 -2
-28 5 -15 9 -24 10 -33 3 -7 -6 -15 -8 -19 -5 -3 3 -4 -2 -1 -13 3 -10 1 -43
-4 -73 -14 -79 -15 757 -2 1030 17 355 50 508 150 705 153 300 432 514 758
582 80 16 226 31 282 29 l35 -1 -2 -85z m1837 63 c123 -19 223 -53 337 -112
272 -144 452 -359 547 -656 64 -200 76 -325 81 -815 2 -262 0 -363 -5 -287 -7
108 -18 163 -21 109 -1 -12 -3 -26 -4 -32 -1 -5 -4 -25 -5 -42 l-2 -33 -9 40
c-4 22 -8 62 -8 88 -1 29 -5 46 -11 42 -5 -3 -10 -19 -10 -34 0 -32 -28 -73
-36 -53 -3 6 -10 10 -15 6 -16 -9 -10 -22 14 -27 12 -2 -4 -5 -35 -6 -44 -1
-58 -5 -58 -16 0 -10 -11 -15 -35 -15 -41 0 -50 -13 -60 -94 -5 -41 -10 -55
-16 -45 -8 12 -13 6 -10 -13 0 -4 -19 -10 -43 -13 -102 -16 -158 80 -111 188
11 26 -1 33 -35 20 -32 -12 -40 -8 -40 19 0 15 -8 18 -45 18 l-45 0 -1 -37
c-1 -21 -5 -92 -9 -158 l-6 -120 -2 145 c-1 80 -7 217 -12 305 -25 386 -75
531 -305 890 -81 127 -127 211 -156 285 -43 109 -83 282 -93 408 l-6 74 87 -7
c49 -3 131 -13 183 -22z m-1690 -1047 c0 -3 -4 -8 -10 -11 -5 -3 -10 -1 -10 4
0 6 5 11 10 11 6 0 10 -2 10 -4z m2120 -796 c0 -5 -5 -10 -11 -10 -5 0 -7 5
-4 10 3 6 8 10 11 10 2 0 4 -4 4 -10z m3 -125 c-3 -9 -8 -14 -10 -11 -3 3 -2
9 2 15 9 16 15 13 8 -4z m142 -177 c9 -29 67 -81 155 -139 l25 -17 -21 -28
c-26 -36 -79 -64 -121 -64 -41 0 -97 48 -113 96 -18 54 5 152 42 175 20 13 23
11 33 -23z m-1884 -268 c3 -118 4 -221 1 -227 -3 -9 -31 -13 -92 -13 -58 0
-91 4 -98 13 -10 12 -15 424 -5 440 2 4 46 6 96 5 l92 -3 6 -215z m361 48 c4
-251 3 -267 -8 -278 -7 -7 -42 -8 -97 -4 l-87 7 0 218 c0 164 3 219 13 222 6
3 49 6 95 6 l82 1 2 -172z m362 135 c3 -21 6 -120 6 -219 0 -142 -3 -184 -14
-193 -9 -8 -41 -9 -100 -5 l-86 7 0 217 c0 119 3 220 7 223 3 4 45 7 93 7 l87
0 7 -37z m-2289 -241 c-3 -3 -11 0 -18 7 -9 10 -8 11 6 5 10 -3 15 -9 12 -12z
m90 -19 l20 -16 -20 8 c-11 4 -33 11 -50 15 l-30 8 30 1 c17 0 39 -7 50 -16z
m155 -83 c0 -5 -2 -10 -4 -10 -3 0 -8 5 -11 10 -3 6 -1 10 4 10 6 0 11 -4 11
-10z m-180 -75 c29 -15 29 -15 32 -122 2 -60 2 -110 1 -111 -1 -2 -18 11 -38
30 -37 33 -37 35 -43 126 -5 100 -3 103 48 77z m410 -172 c0 -24 -3 -33 -9
-25 -7 12 -4 62 5 62 2 0 4 -17 4 -37z m1092 -147 c4 -135 11 -126 -92 -126
-49 0 -91 3 -93 8 -3 4 -8 53 -12 110 l-8 102 101 0 101 0 3 -94z m361 5 c9
-136 12 -132 -97 -129 l-91 3 -3 108 -3 107 94 0 94 0 6 -89z m362 67 c3 -13
5 -61 3 -108 l-3 -85 -95 0 -95 0 -3 94 c-1 52 -1 100 2 108 4 9 30 13 95 13
86 0 91 -1 96 -22z m-2369 -53 c47 -23 158 -123 122 -109 -11 3 -18 1 -18 -5
0 -20 -26 -11 -56 20 -16 17 -48 42 -72 56 -50 30 -74 63 -44 63 10 0 40 -11
68 -25z"/>
<path d="M2625 3330 c3 -5 8 -10 11 -10 2 0 4 5 4 10 0 6 -5 10 -11 10 -5 0
-7 -4 -4 -10z"/>
<path d="M1726 3283 c-6 -14 -5 -15 5 -6 7 7 10 15 7 18 -3 3 -9 -2 -12 -12z"/>
<path d="M569 2379 c-49 -29 -69 -66 -69 -129 0 -47 4 -56 36 -86 30 -29 43
-34 83 -34 34 0 56 7 80 24 l33 24 -39 -5 c-32 -4 -45 0 -69 20 -25 22 -29 32
-29 75 0 71 15 85 87 80 58 -4 64 -2 50 18 -25 38 -108 44 -163 13z"/>
<path d="M411 2064 c0 -11 3 -14 6 -6 3 7 2 16 -1 19 -3 4 -6 -2 -5 -13z"/>
<path d="M700 2010 c0 -5 15 -10 33 -10 24 0 28 3 17 10 -20 13 -50 13 -50 0z"/>
<path d="M525 1980 c-8 -13 -1 -24 14 -19 6 3 7 10 2 18 -6 10 -10 10 -16 1z"/>
<path d="M400 1946 c0 -9 5 -16 10 -16 6 0 10 4 10 9 0 6 -4 13 -10 16 -5 3
-10 -1 -10 -9z"/>
<path d="M4046 2704 c-4 -9 -4 -19 -1 -22 2 -3 7 3 11 12 4 9 4 19 1 22 -2 3
-7 -3 -11 -12z"/>
<path d="M4080 2600 c0 -5 4 -10 9 -10 6 0 13 5 16 10 3 6 -1 10 -9 10 -9 0
-16 -4 -16 -10z"/>
<path d="M4051 2583 c2 -10 -2 -28 -9 -40 -12 -22 -14 -123 -2 -103 7 12 22
-2 33 -31 9 -25 56 -33 78 -13 10 9 16 21 13 25 -3 5 3 6 12 2 13 -5 16 -3 11
10 -4 11 -1 17 7 17 18 0 5 86 -16 107 -9 8 -37 18 -62 20 -25 3 -46 10 -46
14 0 5 -5 9 -11 9 -5 0 -9 -8 -8 -17z"/>
<path d="M3869 2337 c5 -5 28 -7 52 -5 l44 3 -52 5 c-29 3 -48 1 -44 -3z"/>
<path d="M4007 2343 c-4 -3 -2 -12 3 -19 6 -6 9 -16 8 -22 -2 -5 2 -10 7 -11
6 -1 10 13 11 29 1 28 -13 39 -29 23z"/>
</g>
</svg>
